<svg xmlns="http://www.w3.org/2000/svg" width="1240" height="848" viewBox="0 0 1240 848" font-family="Calibri,Segoe UI,Arial,sans-serif">
<rect width="1240" height="848" fill="#ffffff"/>
<text x="620" y="36" text-anchor="middle" font-size="22" font-weight="800" fill="#1e293b">LC_CPUWR 0721v1 配置拍重组对照（流内字节顺序不变，仅分组 2B/拍 → 3B/拍）</text>
<text x="620" y="60" text-anchor="middle" font-size="13" fill="#64748b">FCONFIG 60B：30 拍 → 20 拍（END 5'd30 → 5'd20） ｜ LCONFIG 6B：3 拍 → 2 拍（END 3'd4 → 3'd3） ｜ 寄存器地址映射与 XOR 总量均不变</text>
<rect x="70" y="76" width="16" height="16" rx="4" fill="#ecfdf5" stroke="#16a34a" stroke-width="1.5"/>
<text x="92" y="89" font-size="12" fill="#334155">参与 checksum 字节</text>
<rect x="294" y="76" width="16" height="16" rx="4" fill="#f1f5f9" stroke="#cbd5e1" stroke-width="1.5"/>
<text x="316" y="89" font-size="12" fill="#334155">gap / 不参与</text>
<rect x="458" y="76" width="16" height="16" rx="4" fill="#fff7ed" stroke="#fb923c" stroke-width="1.5"/>
<text x="480" y="89" font-size="12" fill="#334155">0x07 控制寄存器（排除）</text>
<rect x="682" y="76" width="16" height="16" rx="4" fill="#fefce8" stroke="#eab308" stroke-width="1.5"/>
<text x="704" y="89" font-size="12" fill="#334155">0x27 frame end</text>
<text x="320" y="128" text-anchor="middle" font-size="15" font-weight="800" fill="#475569">0716_v1_work：2 字节/拍（C, D）</text>
<text x="920" y="128" text-anchor="middle" font-size="15" font-weight="800" fill="#2563eb">0721_v1：3 字节/拍（C, D, F）</text>
<line x1="620" y1="110" x2="620" y2="740" stroke="#e2e8f0" stroke-width="2"/>
<text x="60" y="158" font-size="13" font-weight="700" fill="#0f172a">区域 A：0x00 ~ 0x0B（checksum 区开头）</text>
<rect x="36" y="192" width="90" height="50" rx="9" fill="none" stroke="#94a3b8" stroke-width="2"/><text x="81.0" y="184" text-anchor="middle" font-size="11" font-weight="700" fill="#94a3b8">5'h01</text><rect x="44" y="200" width="34" height="34" rx="5" fill="#ecfdf5" stroke="#16a34a" stroke-width="1.5"/><text x="61.0" y="222" text-anchor="middle" font-size="12" font-weight="600" fill="#166534">00</text><rect x="84" y="200" width="34" height="34" rx="5" fill="#ecfdf5" stroke="#16a34a" stroke-width="1.5"/><text x="101.0" y="222" text-anchor="middle" font-size="12" font-weight="600" fill="#166534">01</text><text x="81.0" y="260" text-anchor="middle" font-size="11" fill="#334155">C^D</text>
<rect x="132" y="192" width="90" height="50" rx="9" fill="none" stroke="#94a3b8" stroke-width="2"/><text x="177.0" y="184" text-anchor="middle" font-size="11" font-weight="700" fill="#94a3b8">5'h02</text><rect x="140" y="200" width="34" height="34" rx="5" fill="#ecfdf5" stroke="#16a34a" stroke-width="1.5"/><text x="157.0" y="222" text-anchor="middle" font-size="12" font-weight="600" fill="#166534">02</text><rect x="180" y="200" width="34" height="34" rx="5" fill="#ecfdf5" stroke="#16a34a" stroke-width="1.5"/><text x="197.0" y="222" text-anchor="middle" font-size="12" font-weight="600" fill="#166534">03</text><text x="177.0" y="260" text-anchor="middle" font-size="11" fill="#334155">C^D</text>
<rect x="228" y="192" width="90" height="50" rx="9" fill="none" stroke="#94a3b8" stroke-width="2"/><text x="273.0" y="184" text-anchor="middle" font-size="11" font-weight="700" fill="#94a3b8">5'h03</text><rect x="236" y="200" width="34" height="34" rx="5" fill="#ecfdf5" stroke="#16a34a" stroke-width="1.5"/><text x="253.0" y="222" text-anchor="middle" font-size="12" font-weight="600" fill="#166534">04</text><rect x="276" y="200" width="34" height="34" rx="5" fill="#ecfdf5" stroke="#16a34a" stroke-width="1.5"/><text x="293.0" y="222" text-anchor="middle" font-size="12" font-weight="600" fill="#166534">05</text><text x="273.0" y="260" text-anchor="middle" font-size="11" fill="#334155">C^D</text>
<rect x="324" y="192" width="90" height="50" rx="9" fill="none" stroke="#94a3b8" stroke-width="2"/><text x="369.0" y="184" text-anchor="middle" font-size="11" font-weight="700" fill="#94a3b8">5'h04</text><rect x="332" y="200" width="34" height="34" rx="5" fill="#ecfdf5" stroke="#16a34a" stroke-width="1.5"/><text x="349.0" y="222" text-anchor="middle" font-size="12" font-weight="600" fill="#166534">06</text><rect x="372" y="200" width="34" height="34" rx="5" fill="#fff7ed" stroke="#fb923c" stroke-width="1.5"/><text x="389.0" y="222" text-anchor="middle" font-size="12" font-weight="600" fill="#c2410c">07</text><text x="369.0" y="260" text-anchor="middle" font-size="11" fill="#334155">C</text>
<rect x="420" y="192" width="90" height="50" rx="9" fill="none" stroke="#94a3b8" stroke-width="2"/><text x="465.0" y="184" text-anchor="middle" font-size="11" font-weight="700" fill="#94a3b8">5'h05</text><rect x="428" y="200" width="34" height="34" rx="5" fill="#ecfdf5" stroke="#16a34a" stroke-width="1.5"/><text x="445.0" y="222" text-anchor="middle" font-size="12" font-weight="600" fill="#166534">08</text><rect x="468" y="200" width="34" height="34" rx="5" fill="#ecfdf5" stroke="#16a34a" stroke-width="1.5"/><text x="485.0" y="222" text-anchor="middle" font-size="12" font-weight="600" fill="#166534">09</text><text x="465.0" y="260" text-anchor="middle" font-size="11" fill="#334155">C^D</text>
<rect x="516" y="192" width="90" height="50" rx="9" fill="none" stroke="#94a3b8" stroke-width="2"/><text x="561.0" y="184" text-anchor="middle" font-size="11" font-weight="700" fill="#94a3b8">5'h06</text><rect x="524" y="200" width="34" height="34" rx="5" fill="#ecfdf5" stroke="#16a34a" stroke-width="1.5"/><text x="541.0" y="222" text-anchor="middle" font-size="12" font-weight="600" fill="#166534">0A</text><rect x="564" y="200" width="34" height="34" rx="5" fill="#f1f5f9" stroke="#cbd5e1" stroke-width="1.5"/><text x="581.0" y="222" text-anchor="middle" font-size="12" font-weight="600" fill="#94a3b8">0B</text><text x="561.0" y="260" text-anchor="middle" font-size="11" fill="#334155">C</text>
<rect x="656" y="192" width="130" height="50" rx="9" fill="none" stroke="#2563eb" stroke-width="2"/><text x="721.0" y="184" text-anchor="middle" font-size="11" font-weight="700" fill="#2563eb">5'h01</text><rect x="664" y="200" width="34" height="34" rx="5" fill="#ecfdf5" stroke="#16a34a" stroke-width="1.5"/><text x="681.0" y="222" text-anchor="middle" font-size="12" font-weight="600" fill="#166534">00</text><rect x="704" y="200" width="34" height="34" rx="5" fill="#ecfdf5" stroke="#16a34a" stroke-width="1.5"/><text x="721.0" y="222" text-anchor="middle" font-size="12" font-weight="600" fill="#166534">01</text><rect x="744" y="200" width="34" height="34" rx="5" fill="#ecfdf5" stroke="#16a34a" stroke-width="1.5"/><text x="761.0" y="222" text-anchor="middle" font-size="12" font-weight="600" fill="#166534">02</text><text x="721.0" y="260" text-anchor="middle" font-size="11" fill="#334155">C^D^F</text>
<rect x="802" y="192" width="130" height="50" rx="9" fill="none" stroke="#2563eb" stroke-width="2"/><text x="867.0" y="184" text-anchor="middle" font-size="11" font-weight="700" fill="#2563eb">5'h02</text><rect x="810" y="200" width="34" height="34" rx="5" fill="#ecfdf5" stroke="#16a34a" stroke-width="1.5"/><text x="827.0" y="222" text-anchor="middle" font-size="12" font-weight="600" fill="#166534">03</text><rect x="850" y="200" width="34" height="34" rx="5" fill="#ecfdf5" stroke="#16a34a" stroke-width="1.5"/><text x="867.0" y="222" text-anchor="middle" font-size="12" font-weight="600" fill="#166534">04</text><rect x="890" y="200" width="34" height="34" rx="5" fill="#ecfdf5" stroke="#16a34a" stroke-width="1.5"/><text x="907.0" y="222" text-anchor="middle" font-size="12" font-weight="600" fill="#166534">05</text><text x="867.0" y="260" text-anchor="middle" font-size="11" fill="#334155">C^D^F</text>
<rect x="948" y="192" width="130" height="50" rx="9" fill="none" stroke="#2563eb" stroke-width="2"/><text x="1013.0" y="184" text-anchor="middle" font-size="11" font-weight="700" fill="#2563eb">5'h03</text><rect x="956" y="200" width="34" height="34" rx="5" fill="#ecfdf5" stroke="#16a34a" stroke-width="1.5"/><text x="973.0" y="222" text-anchor="middle" font-size="12" font-weight="600" fill="#166534">06</text><rect x="996" y="200" width="34" height="34" rx="5" fill="#fff7ed" stroke="#fb923c" stroke-width="1.5"/><text x="1013.0" y="222" text-anchor="middle" font-size="12" font-weight="600" fill="#c2410c">07</text><rect x="1036" y="200" width="34" height="34" rx="5" fill="#ecfdf5" stroke="#16a34a" stroke-width="1.5"/><text x="1053.0" y="222" text-anchor="middle" font-size="12" font-weight="600" fill="#166534">08</text><text x="1013.0" y="260" text-anchor="middle" font-size="11" fill="#334155">C^F</text>
<rect x="1094" y="192" width="130" height="50" rx="9" fill="none" stroke="#2563eb" stroke-width="2"/><text x="1159.0" y="184" text-anchor="middle" font-size="11" font-weight="700" fill="#2563eb">5'h04</text><rect x="1102" y="200" width="34" height="34" rx="5" fill="#ecfdf5" stroke="#16a34a" stroke-width="1.5"/><text x="1119.0" y="222" text-anchor="middle" font-size="12" font-weight="600" fill="#166534">09</text><rect x="1142" y="200" width="34" height="34" rx="5" fill="#ecfdf5" stroke="#16a34a" stroke-width="1.5"/><text x="1159.0" y="222" text-anchor="middle" font-size="12" font-weight="600" fill="#166534">0A</text><rect x="1182" y="200" width="34" height="34" rx="5" fill="#f1f5f9" stroke="#cbd5e1" stroke-width="1.5"/><text x="1199.0" y="222" text-anchor="middle" font-size="12" font-weight="600" fill="#94a3b8">0B</text><text x="1159.0" y="260" text-anchor="middle" font-size="11" fill="#334155">C^D</text>
<text x="60" y="322" font-size="13" font-weight="700" fill="#0f172a">区域 B：0x1B ~ 0x20（跨 Segment1 边界，0721 后 0x1F/0x20 同拍）</text>
<rect x="48" y="356" width="90" height="50" rx="9" fill="none" stroke="#94a3b8" stroke-width="2"/><text x="93.0" y="348" text-anchor="middle" font-size="11" font-weight="700" fill="#94a3b8">5'h0F</text><rect x="56" y="364" width="34" height="34" rx="5" fill="#f1f5f9" stroke="#cbd5e1" stroke-width="1.5"/><text x="73.0" y="386" text-anchor="middle" font-size="12" font-weight="600" fill="#94a3b8">1C</text><rect x="96" y="364" width="34" height="34" rx="5" fill="#ecfdf5" stroke="#16a34a" stroke-width="1.5"/><text x="113.0" y="386" text-anchor="middle" font-size="12" font-weight="600" fill="#166534">1D</text><text x="93.0" y="424" text-anchor="middle" font-size="11" fill="#334155">D</text>
<rect x="154" y="356" width="90" height="50" rx="9" fill="none" stroke="#94a3b8" stroke-width="2"/><text x="199.0" y="348" text-anchor="middle" font-size="11" font-weight="700" fill="#94a3b8">5'h10</text><rect x="162" y="364" width="34" height="34" rx="5" fill="#ecfdf5" stroke="#16a34a" stroke-width="1.5"/><text x="179.0" y="386" text-anchor="middle" font-size="12" font-weight="600" fill="#166534">1E</text><rect x="202" y="364" width="34" height="34" rx="5" fill="#ecfdf5" stroke="#16a34a" stroke-width="1.5"/><text x="219.0" y="386" text-anchor="middle" font-size="12" font-weight="600" fill="#166534">1F</text><text x="199.0" y="424" text-anchor="middle" font-size="11" fill="#334155">C^D</text>
<rect x="260" y="356" width="90" height="50" rx="9" fill="none" stroke="#94a3b8" stroke-width="2"/><text x="305.0" y="348" text-anchor="middle" font-size="11" font-weight="700" fill="#94a3b8">5'h11</text><rect x="268" y="364" width="34" height="34" rx="5" fill="#f1f5f9" stroke="#cbd5e1" stroke-width="1.5"/><text x="285.0" y="386" text-anchor="middle" font-size="12" font-weight="600" fill="#94a3b8">20</text><rect x="308" y="364" width="34" height="34" rx="5" fill="#f1f5f9" stroke="#cbd5e1" stroke-width="1.5"/><text x="325.0" y="386" text-anchor="middle" font-size="12" font-weight="600" fill="#94a3b8">21</text><text x="305.0" y="424" text-anchor="middle" font-size="11" fill="#334155">—</text>
<rect x="656" y="356" width="130" height="50" rx="9" fill="none" stroke="#2563eb" stroke-width="2"/><text x="721.0" y="348" text-anchor="middle" font-size="11" font-weight="700" fill="#2563eb">5'h0A</text><rect x="664" y="364" width="34" height="34" rx="5" fill="#f1f5f9" stroke="#cbd5e1" stroke-width="1.5"/><text x="681.0" y="386" text-anchor="middle" font-size="12" font-weight="600" fill="#94a3b8">1B</text><rect x="704" y="364" width="34" height="34" rx="5" fill="#f1f5f9" stroke="#cbd5e1" stroke-width="1.5"/><text x="721.0" y="386" text-anchor="middle" font-size="12" font-weight="600" fill="#94a3b8">1C</text><rect x="744" y="364" width="34" height="34" rx="5" fill="#ecfdf5" stroke="#16a34a" stroke-width="1.5"/><text x="761.0" y="386" text-anchor="middle" font-size="12" font-weight="600" fill="#166534">1D</text><text x="721.0" y="424" text-anchor="middle" font-size="11" fill="#334155">F</text>
<rect x="802" y="356" width="130" height="50" rx="9" fill="none" stroke="#2563eb" stroke-width="2"/><text x="867.0" y="348" text-anchor="middle" font-size="11" font-weight="700" fill="#2563eb">5'h0B</text><rect x="810" y="364" width="34" height="34" rx="5" fill="#ecfdf5" stroke="#16a34a" stroke-width="1.5"/><text x="827.0" y="386" text-anchor="middle" font-size="12" font-weight="600" fill="#166534">1E</text><rect x="850" y="364" width="34" height="34" rx="5" fill="#ecfdf5" stroke="#16a34a" stroke-width="1.5"/><text x="867.0" y="386" text-anchor="middle" font-size="12" font-weight="600" fill="#166534">1F</text><rect x="890" y="364" width="34" height="34" rx="5" fill="#f1f5f9" stroke="#cbd5e1" stroke-width="1.5"/><text x="907.0" y="386" text-anchor="middle" font-size="12" font-weight="600" fill="#94a3b8">20</text><text x="867.0" y="424" text-anchor="middle" font-size="11" fill="#334155">C^D</text>
<text x="60" y="486" font-size="13" font-weight="700" fill="#0f172a">区域 C：0x27（checksum frame end；每帧最后一笔参与字节）</text>
<rect x="48" y="520" width="90" height="50" rx="9" fill="none" stroke="#94a3b8" stroke-width="2"/><text x="93.0" y="512" text-anchor="middle" font-size="11" font-weight="700" fill="#94a3b8">5'h14</text><rect x="56" y="528" width="34" height="34" rx="5" fill="#f1f5f9" stroke="#cbd5e1" stroke-width="1.5"/><text x="73.0" y="550" text-anchor="middle" font-size="12" font-weight="600" fill="#94a3b8">26</text><rect x="96" y="528" width="34" height="34" rx="5" fill="#fefce8" stroke="#eab308" stroke-width="1.5"/><text x="113.0" y="550" text-anchor="middle" font-size="12" font-weight="600" fill="#a16207">27</text><text x="93.0" y="588" text-anchor="middle" font-size="11" fill="#334155">frame_end: D</text>
<rect x="656" y="520" width="130" height="50" rx="9" fill="none" stroke="#2563eb" stroke-width="2"/><text x="721.0" y="512" text-anchor="middle" font-size="11" font-weight="700" fill="#2563eb">5'h0E</text><rect x="664" y="528" width="34" height="34" rx="5" fill="#fefce8" stroke="#eab308" stroke-width="1.5"/><text x="681.0" y="550" text-anchor="middle" font-size="12" font-weight="600" fill="#a16207">27</text><rect x="704" y="528" width="34" height="34" rx="5" fill="#f1f5f9" stroke="#cbd5e1" stroke-width="1.5"/><text x="721.0" y="550" text-anchor="middle" font-size="12" font-weight="600" fill="#94a3b8">28</text><rect x="744" y="528" width="34" height="34" rx="5" fill="#f1f5f9" stroke="#cbd5e1" stroke-width="1.5"/><text x="761.0" y="550" text-anchor="middle" font-size="12" font-weight="600" fill="#94a3b8">29</text><text x="721.0" y="588" text-anchor="middle" font-size="11" fill="#334155">frame_end: C</text>
<text x="60" y="650" font-size="13" font-weight="700" fill="#0f172a">区域 D：LCONFIG 0x40 ~ 0x44（6B：3 拍 → 2 拍，无 pad）</text>
<rect x="48" y="684" width="90" height="50" rx="9" fill="none" stroke="#94a3b8" stroke-width="2"/><text x="93.0" y="676" text-anchor="middle" font-size="11" font-weight="700" fill="#94a3b8">3'h1</text><rect x="56" y="692" width="34" height="34" rx="5" fill="#ecfdf5" stroke="#16a34a" stroke-width="1.5"/><text x="73.0" y="714" text-anchor="middle" font-size="12" font-weight="600" fill="#166534">40</text><rect x="96" y="692" width="34" height="34" rx="5" fill="#ecfdf5" stroke="#16a34a" stroke-width="1.5"/><text x="113.0" y="714" text-anchor="middle" font-size="12" font-weight="600" fill="#166534">41</text><text x="93.0" y="752" text-anchor="middle" font-size="11" fill="#334155">A,B</text>
<rect x="154" y="684" width="90" height="50" rx="9" fill="none" stroke="#94a3b8" stroke-width="2"/><text x="199.0" y="676" text-anchor="middle" font-size="11" font-weight="700" fill="#94a3b8">3'h2</text><rect x="162" y="692" width="34" height="34" rx="5" fill="#ecfdf5" stroke="#16a34a" stroke-width="1.5"/><text x="179.0" y="714" text-anchor="middle" font-size="12" font-weight="600" fill="#166534">42</text><rect x="202" y="692" width="34" height="34" rx="5" fill="#ecfdf5" stroke="#16a34a" stroke-width="1.5"/><text x="219.0" y="714" text-anchor="middle" font-size="12" font-weight="600" fill="#166534">43</text><text x="199.0" y="752" text-anchor="middle" font-size="11" fill="#334155">A,B</text>
<rect x="260" y="684" width="90" height="50" rx="9" fill="none" stroke="#94a3b8" stroke-width="2"/><text x="305.0" y="676" text-anchor="middle" font-size="11" font-weight="700" fill="#94a3b8">3'h3</text><rect x="268" y="692" width="34" height="34" rx="5" fill="#ecfdf5" stroke="#16a34a" stroke-width="1.5"/><text x="285.0" y="714" text-anchor="middle" font-size="12" font-weight="600" fill="#166534">44</text><rect x="308" y="692" width="34" height="34" rx="5" fill="#f1f5f9" stroke="#cbd5e1" stroke-width="1.5"/><text x="325.0" y="714" text-anchor="middle" font-size="12" font-weight="600" fill="#94a3b8">--</text><text x="305.0" y="752" text-anchor="middle" font-size="11" fill="#334155">A</text>
<rect x="656" y="684" width="130" height="50" rx="9" fill="none" stroke="#2563eb" stroke-width="2"/><text x="721.0" y="676" text-anchor="middle" font-size="11" font-weight="700" fill="#2563eb">3'h1</text><rect x="664" y="692" width="34" height="34" rx="5" fill="#ecfdf5" stroke="#16a34a" stroke-width="1.5"/><text x="681.0" y="714" text-anchor="middle" font-size="12" font-weight="600" fill="#166534">40</text><rect x="704" y="692" width="34" height="34" rx="5" fill="#ecfdf5" stroke="#16a34a" stroke-width="1.5"/><text x="721.0" y="714" text-anchor="middle" font-size="12" font-weight="600" fill="#166534">41</text><rect x="744" y="692" width="34" height="34" rx="5" fill="#ecfdf5" stroke="#16a34a" stroke-width="1.5"/><text x="761.0" y="714" text-anchor="middle" font-size="12" font-weight="600" fill="#166534">42</text><text x="721.0" y="752" text-anchor="middle" font-size="11" fill="#334155">A,B,E</text>
<rect x="802" y="684" width="130" height="50" rx="9" fill="none" stroke="#2563eb" stroke-width="2"/><text x="867.0" y="676" text-anchor="middle" font-size="11" font-weight="700" fill="#2563eb">3'h2</text><rect x="810" y="692" width="34" height="34" rx="5" fill="#ecfdf5" stroke="#16a34a" stroke-width="1.5"/><text x="827.0" y="714" text-anchor="middle" font-size="12" font-weight="600" fill="#166534">43</text><rect x="850" y="692" width="34" height="34" rx="5" fill="#ecfdf5" stroke="#16a34a" stroke-width="1.5"/><text x="867.0" y="714" text-anchor="middle" font-size="12" font-weight="600" fill="#166534">44</text><rect x="890" y="692" width="34" height="34" rx="5" fill="#f1f5f9" stroke="#cbd5e1" stroke-width="1.5"/><text x="907.0" y="714" text-anchor="middle" font-size="12" font-weight="600" fill="#94a3b8">--</text><text x="867.0" y="752" text-anchor="middle" font-size="11" fill="#334155">A,B</text>
<rect x="48" y="768" width="560" height="66" rx="10" fill="#ecfdf5" stroke="#16a34a" stroke-width="1.5"/>
<text x="64" y="790" font-size="13" font-weight="700" fill="#166534">XOR 总量不变（结合律）</text>
<text x="64" y="808" font-size="12" fill="#166534">0x00^01^02^03^04^05^06^08^09^0A^1D^1E^1F，frame_end=0x27</text>
<text x="64" y="826" font-size="12" fill="#166534">分组变化不改值 → checker / DV 期望与回归行为不变</text>
<rect x="640" y="768" width="560" height="66" rx="10" fill="#fff7ed" stroke="#fb923c" stroke-width="1.5"/>
<text x="656" y="790" font-size="13" font-weight="700" fill="#c2410c">过渡依赖</text>
<text x="656" y="808" font-size="12" fill="#c2410c">CHPI_CONFIG_L0 未升 24bit 前，LINK_LOGIC 将 [23:16] tie-off 防 X 传播</text>
<text x="656" y="826" font-size="12" fill="#c2410c">全芯片 FCONFIG 流仿真待上游升版后联调（END：5'd20 / 3'd3）</text>
</svg>